# xmcd CD database file
#
# Track frame offsets:
#	150
#	15822
#	41312
#	69750
#	94564
#	114654
#	144381
#	162969
#	182643
#
# Disc length: 2577 seconds
#
# Revision: 0
# Processed by: cddbd v1.5.1PL2 Copyright (c) Steve Scherf et al.
# Submitted via: CDex 1.51
#
DISCID=5f0a0f09
DTITLE=Armand and Angelina - Sacred Flute Journeys
DYEAR=2005
DGENRE=New Age
TTITLE0=Swallow
TTITLE1=Morning Dew
TTITLE2=Reiki Heart Song
TTITLE3=Inca Dance
TTITLE4=Comfort Me
TTITLE5=Angel Flute
TTITLE6=Coyote Spirit
TTITLE7=Rainforest Flute
TTITLE8=Amazing Grace
EXTD=YEAR: 2005
EXTT0=
EXTT1=
EXTT2=
EXTT3=
EXTT4=
EXTT5=
EXTT6=
EXTT7=
EXTT8=
PLAYORDER=
